<svg width="100.000000" height="100.000000" viewBox="0 0 100 100" fill="none" xmlns="http://www.w3.org/2000/svg" xmlns:xlink="http://www.w3.org/1999/xlink">
	<desc>
			Created with Pixso.
	</desc>
	<defs>
		<filter id="filter_201_3847_dd" x="0.000000" y="0.000000" width="100.000000" height="100.000000" filterUnits="userSpaceOnUse" color-interpolation-filters="sRGB">
			<feFlood flood-opacity="0" result="BackgroundImageFix"/>
			<feBlend mode="normal" in="SourceGraphic" in2="BackgroundImageFix" result="shape"/>
			<feGaussianBlur stdDeviation="8.33333" result="effect_layerBlur_1"/>
		</filter>
		<clipPath id="clip201_3848">
			<rect id="dental 1" width="48.000000" height="48.000000" transform="translate(26.000000 26.000000)" fill="white" fill-opacity="0"/>
		</clipPath>
	</defs>
	<circle id="Ellipse 5" cx="50.000000" cy="50.000000" r="35.000000" fill="#25B4F8" fill-opacity="1.000000"/>
	<g filter="url(#filter_201_3847_dd)">
		<circle id="Ellipse 5" cx="50.000000" cy="50.000000" r="25.000000" fill="#25B4F8" fill-opacity="1.000000"/>
	</g>
	<rect id="dental 1" width="48.000000" height="48.000000" transform="translate(26.000000 26.000000)" fill="#FFFFFF" fill-opacity="0"/>
	<g clip-path="url(#clip201_3848)">
		<path id="Vector" d="M45.79 40.1C47.11 41.42 48 43.08 48.36 44.91C48.52 45.68 49.2 46.25 50 46.25C50.79 46.25 51.47 45.68 51.63 44.91L52.08 42.63C52.11 42.47 52.38 42.47 52.41 42.63L52.86 44.91C53.02 45.68 53.7 46.25 54.5 46.25C55.29 46.25 55.97 45.68 56.13 44.91C56.49 43.08 57.38 41.42 58.7 40.1L59.03 39.77C59.98 38.83 60.5 37.57 60.5 36.24C60.5 33.48 58.26 31.25 55.5 31.25L54.93 31.25L54.28 31.9C53.74 32.44 53 32.75 52.25 32.75C51.49 32.75 50.75 32.44 50.21 31.9L49.56 31.25L48.99 31.25C46.23 31.25 44 33.48 44 36.24C44 37.57 44.51 38.83 45.46 39.77L45.79 40.1ZM48.93 32.75L49.15 32.96C49.97 33.78 51.09 34.25 52.25 34.25C53.4 34.25 54.52 33.78 55.34 32.96L55.56 32.75C57.46 32.77 59 34.33 59 36.24C59 37.17 58.63 38.05 57.97 38.71L57.64 39.04C56.11 40.57 55.08 42.49 54.66 44.61C54.63 44.77 54.36 44.76 54.33 44.61L53.88 42.33C53.72 41.56 53.04 41 52.25 41C51.45 41 50.77 41.56 50.61 42.33L50.16 44.61C50.13 44.77 49.86 44.77 49.83 44.61C49.41 42.5 48.38 40.57 46.85 39.04L46.52 38.71C45.86 38.05 45.5 37.17 45.5 36.24C45.5 34.33 47.03 32.77 48.93 32.75Z" fill="#FFFFFF" fill-opacity="1.000000" fill-rule="nonzero"/>
		<path id="Vector" d="M71.77 54.91C71.3 54.64 70.78 54.5 70.25 54.5C69.19 54.5 68.2 55.06 67.66 55.97L66.3 58.28C65.94 56.83 65.07 55.58 63.82 54.75C63.64 54.63 63.46 54.54 63.27 54.44C64.75 53.51 65.75 51.87 65.75 50C65.75 47.33 63.75 45.13 61.18 44.79C62.68 42.85 63.5 40.49 63.5 38C63.5 31.79 58.45 26.75 52.25 26.75C46.04 26.75 41 31.79 41 38C41 38.58 41.04 39.15 41.13 39.73C40.61 39.58 40.06 39.5 39.5 39.5C36.19 39.5 33.5 42.19 33.5 45.5C33.5 47.62 34.61 49.49 36.28 50.55C32.48 51.88 29.75 55.5 29.75 59.75L29.75 65.75C29.75 66.29 29.9 66.8 30.16 67.25L29.75 67.25C28.09 67.25 26.75 68.59 26.75 70.25C26.75 71.9 28.09 73.25 29.75 73.25L58.88 73.25C62.33 73.25 65.54 71.4 67.29 68.44L72.83 59.01C73.67 57.59 73.19 55.75 71.77 54.91ZM64.91 58.86C65.02 59.42 65.02 59.97 64.92 60.55L64.91 60.64L62.12 65.4C61.45 66.54 60.21 67.25 58.88 67.25L52.25 67.25C51.62 67.25 51.12 66.74 51.12 66.12C51.12 65.5 51.62 65 52.25 65L57.93 65C58.85 65 59.71 64.51 60.18 63.72L61.89 60.88L60.6 60.11L58.9 62.95C58.7 63.29 58.33 63.5 57.93 63.5L52.59 63.5L56.75 57.25C57.58 55.99 58.98 55.25 60.49 55.25C61.38 55.25 62.25 55.51 62.99 56C63.99 56.67 64.67 57.68 64.91 58.86ZM45.33 46.85C47.3 48.4 49.7 49.25 52.25 49.25C53.32 49.25 54.37 49.08 55.39 48.77C55.3 49.17 55.25 49.57 55.25 50C55.25 51.86 56.23 53.5 57.7 54.43C56.83 54.89 56.07 55.57 55.5 56.42L51.28 62.75L50.97 62.75L49.25 61.59L49.25 59.75C49.25 55.5 46.51 51.88 42.71 50.55C44.01 49.72 44.97 48.4 45.33 46.85ZM48.27 62.75L35.74 62.75L38.06 61.01C39.15 60.19 40.49 59.75 41.85 59.75C43.11 59.75 44.32 60.11 45.36 60.81L48.27 62.75ZM64.25 50C64.25 52.06 62.56 53.75 60.5 53.75C58.43 53.75 56.75 52.06 56.75 50C56.75 47.93 58.43 46.25 60.5 46.25C62.56 46.25 64.25 47.93 64.25 50ZM42.5 38C42.5 32.62 46.87 28.25 52.25 28.25C57.62 28.25 62 32.62 62 38C62 40.64 60.95 43.1 59.05 44.95C57.95 45.27 56.99 45.94 56.31 46.84C55.02 47.44 53.65 47.75 52.25 47.75C49.69 47.75 47.3 46.76 45.47 44.99C45.31 43.12 44.31 41.5 42.84 40.51C42.61 39.69 42.5 38.84 42.5 38ZM35 45.5C35 43.01 37.01 41 39.5 41C41.98 41 44 43.01 44 45.5C44 47.98 41.98 50 39.5 50C37.01 50 35 47.98 35 45.5ZM39.5 51.5C44.04 51.5 47.75 55.2 47.75 59.75L47.75 60.59L46.19 59.56C44.9 58.7 43.4 58.25 41.85 58.25C40.17 58.25 38.5 58.8 37.16 59.81L33.25 62.75L32.75 62.75C32.2 62.75 31.69 62.9 31.25 63.16L31.25 59.75C31.25 55.2 34.95 51.5 39.5 51.5ZM31.25 65.75C31.25 64.92 31.92 64.25 32.75 64.25L50.41 64.25C49.93 64.72 49.62 65.38 49.62 66.12C49.62 66.52 49.72 66.9 49.88 67.25L32.74 67.25C31.92 67.24 31.25 66.57 31.25 65.75ZM71.54 58.25L66 67.68C64.52 70.19 61.79 71.75 58.88 71.75L29.75 71.75C28.92 71.75 28.25 71.07 28.25 70.25C28.25 69.42 28.92 68.75 29.75 68.75L32.74 68.75L32.75 68.75L49.25 68.75L52.25 68.75L58.88 68.75L58.96 68.75L58.96 68.74C60.78 68.71 62.48 67.73 63.41 66.16L68.95 56.74C69.36 56.05 70.32 55.8 71.01 56.2C71.72 56.62 71.96 57.54 71.54 58.25Z" fill="#FFFFFF" fill-opacity="1.000000" fill-rule="nonzero"/>
	</g>
</svg>
