<svg width="70.000000" height="70.000000" viewBox="0 0 70 70" fill="none" xmlns="http://www.w3.org/2000/svg" xmlns:xlink="http://www.w3.org/1999/xlink">
	<desc>
			Created with Pixso.
	</desc>
	<defs>
		<clipPath id="clip201_3502">
			<rect id="teeth 1" width="48.000000" height="48.000000" transform="translate(11.000000 11.000000)" fill="white" fill-opacity="0"/>
		</clipPath>
	</defs>
	<circle id="Ellipse 4" cx="35.000000" cy="35.000000" r="35.000000" fill="#25B4F8" fill-opacity="1.000000"/>
	<rect id="teeth 1" width="48.000000" height="48.000000" transform="translate(11.000000 11.000000)" fill="#FFFFFF" fill-opacity="0"/>
	<g clip-path="url(#clip201_3502)">
		<path id="Vector" d="M52.29 15.25C51.14 14.21 49.82 13.37 48.38 12.79C46.91 12.2 45.34 11.88 43.75 11.81C43.47 11.79 43.19 11.79 42.91 11.79C41.43 11.79 39.91 12.17 38.51 12.9C36.31 14.04 33.68 14.04 31.48 12.9C30.09 12.17 28.57 11.79 27.09 11.79C25.5 11.79 23.91 12 22.4 12.51C20.93 12.99 19.55 13.75 18.34 14.71C18.12 14.88 17.91 15.06 17.71 15.25C14.65 17.99 13.01 22.09 13.22 26.5C13.43 30.48 14.75 35.82 19.73 38.98C19.7 40.08 19.68 41.23 19.76 42.38C19.81 43.08 19.87 43.88 19.99 44.67C20.67 49.04 22 53.92 26.76 57.02C27.9 57.76 29.75 58.84 31 57.66C31.87 56.85 32.09 55.37 32.15 54.23C32.15 54.18 32.44 49.29 35.03 44.46C36.08 46.19 37.72 49.62 38.3 54.88C38.46 56.36 39.1 58.2 40.89 58.2C41.82 58.2 42.67 57.69 43 57.48C45.82 55.76 47.79 53.43 49.01 50.34C50.48 46.66 50.62 43.09 50.33 38.94C55.29 35.76 56.58 30.46 56.76 26.49C56.99 22.08 55.36 17.98 52.29 15.25ZM40.74 34.55C39.46 33.65 37.68 32.65 35.64 31.9C35.19 31.74 34.79 31.62 34.35 31.9C32.32 32.64 30.54 33.64 29.26 34.54C29.04 31.61 28.18 28.65 27.39 26.51L32.71 27.89C34.36 28.32 36.1 28.31 37.75 27.86L42.59 26.5C41.81 28.67 40.96 31.62 40.74 34.55ZM35.79 41.63C35.55 41.37 35.21 41.23 34.86 41.26C34.51 41.29 34.2 41.48 34.01 41.77C30.29 47.53 29.92 53.85 29.91 54.11C29.9 54.12 29.9 54.13 29.9 54.14C26.96 47.08 28.79 39.03 29.18 37.51C29.61 37 31.91 35.21 35 34.06C38.12 35.23 40.46 37.05 40.83 37.54C41.28 39.01 43.52 47.22 40.5 54.36C39.49 45.84 35.94 41.8 35.79 41.63ZM27.83 55.01C23.94 52.39 22.81 48.14 22.22 44.32C22.11 43.62 22.05 42.87 22 42.22C21.92 41.1 21.95 39.98 21.98 38.79C22 38.12 21.92 37.67 21.31 37.31C16.82 34.7 15.65 29.93 15.47 26.38C15.29 22.66 16.65 19.21 19.21 16.92C20.75 15.54 22.63 14.62 24.67 14.24C26.64 13.88 28.64 13.95 30.45 14.89C33.3 16.37 36.7 16.37 39.55 14.89C40.63 14.33 41.79 14.04 42.91 14.03C44.49 14.03 46.06 14.29 47.53 14.88C48.72 15.36 49.83 16.06 50.79 16.92C53.35 19.2 54.71 22.65 54.52 26.37C54.35 29.95 53.19 34.75 48.62 37.36C48.28 37.56 48.01 38.02 48.05 38.44C48.38 42.57 48.31 46.03 46.92 49.5C46.01 51.8 44.62 53.61 42.67 55C44.88 49.63 44.73 43.38 43.26 37.83C42.35 34.41 43.54 30.51 44.7 27.26C44.98 26.48 44.81 25.62 44.24 25.01C43.67 24.39 42.82 24.15 42.02 24.37L37.16 25.69C35.89 26.03 34.55 26.04 33.27 25.71L27.95 24.33C27.15 24.12 26.3 24.37 25.74 24.99C25.18 25.6 25.01 26.46 25.29 27.23C26.4 30.33 27.6 33.79 26.95 37.12C26.51 39.35 26.1 41.54 26.01 43.82C25.94 45.64 26.01 47.46 26.27 49.27C26.48 50.72 26.81 52.18 27.28 53.58C27.28 53.58 27.62 54.76 27.83 55.01Z" fill="#FFFFFF" fill-opacity="1.000000" fill-rule="nonzero"/>
		<path id="Vector" d="M48.38 12.79C46.91 12.2 45.34 11.88 43.75 11.81C43.47 11.79 43.19 11.79 42.91 11.79C41.43 11.79 39.91 12.17 38.51 12.9C36.31 14.04 33.68 14.04 31.48 12.9C30.09 12.17 28.57 11.79 27.09 11.79C25.5 11.79 23.91 12 22.4 12.51C20.93 12.99 19.55 13.75 18.34 14.71C18.12 14.88 17.91 15.06 17.71 15.25C14.65 17.99 13.01 22.09 13.22 26.5C13.43 30.48 14.75 35.82 19.73 38.98C19.7 40.08 19.68 41.23 19.76 42.38C19.81 43.08 19.87 43.88 19.99 44.67C20.67 49.04 22 53.92 26.76 57.02C27.9 57.76 29.75 58.84 31 57.66C31.87 56.85 32.09 55.37 32.15 54.23C32.15 54.18 32.44 49.29 35.03 44.46C36.08 46.19 37.72 49.62 38.3 54.88C38.46 56.36 39.1 58.2 40.89 58.2C41.82 58.2 42.67 57.69 43 57.48C45.82 55.76 47.79 53.43 49.01 50.34C50.48 46.66 50.62 43.09 50.33 38.94C55.29 35.76 56.58 30.46 56.76 26.49C56.99 22.08 55.36 17.98 52.29 15.25C51.14 14.21 49.82 13.37 48.38 12.79ZM35.64 31.9C35.19 31.74 34.79 31.62 34.35 31.9C32.32 32.64 30.54 33.64 29.26 34.54C29.04 31.61 28.18 28.65 27.39 26.51L32.71 27.89C34.36 28.32 36.1 28.31 37.75 27.86L42.59 26.5C41.81 28.67 40.96 31.62 40.74 34.55C39.46 33.65 37.68 32.65 35.64 31.9ZM34.86 41.26C34.51 41.29 34.2 41.48 34.01 41.77C30.29 47.53 29.92 53.85 29.91 54.11C29.9 54.12 29.9 54.13 29.9 54.14C26.96 47.08 28.79 39.03 29.18 37.51C29.61 37 31.91 35.21 35 34.06C38.12 35.23 40.46 37.05 40.83 37.54C41.28 39.01 43.52 47.22 40.5 54.36C39.49 45.84 35.94 41.8 35.79 41.63C35.55 41.37 35.21 41.23 34.86 41.26ZM22.22 44.32C22.11 43.62 22.05 42.87 22 42.22C21.92 41.1 21.95 39.98 21.98 38.79C22 38.12 21.92 37.67 21.31 37.31C16.82 34.7 15.65 29.93 15.47 26.38C15.29 22.66 16.65 19.21 19.21 16.92C20.75 15.54 22.63 14.62 24.67 14.24C26.64 13.88 28.64 13.95 30.45 14.89C33.3 16.37 36.7 16.37 39.55 14.89C40.63 14.33 41.79 14.04 42.91 14.03C44.49 14.03 46.06 14.29 47.53 14.88C48.72 15.36 49.83 16.06 50.79 16.92C53.35 19.2 54.71 22.65 54.52 26.37C54.35 29.95 53.19 34.75 48.62 37.36C48.28 37.56 48.01 38.02 48.05 38.44C48.38 42.57 48.31 46.03 46.92 49.5C46.01 51.8 44.62 53.61 42.67 55C44.88 49.63 44.73 43.38 43.26 37.83C42.35 34.41 43.54 30.51 44.7 27.26C44.98 26.48 44.81 25.62 44.24 25.01C43.67 24.39 42.82 24.15 42.02 24.37L37.16 25.69C35.89 26.03 34.55 26.04 33.27 25.71L27.95 24.33C27.15 24.12 26.3 24.37 25.74 24.99C25.18 25.6 25.01 26.46 25.29 27.23C26.4 30.33 27.6 33.79 26.95 37.12C26.51 39.35 26.1 41.54 26.01 43.82C25.94 45.64 26.01 47.46 26.27 49.27C26.48 50.72 26.81 52.18 27.28 53.58C27.28 53.58 27.62 54.76 27.83 55.01C23.94 52.39 22.81 48.14 22.22 44.32Z" stroke="#25B4F8" stroke-opacity="1.000000" stroke-width="0.700000"/>
	</g>
</svg>
