<svg width="20.000000" height="20.000000" viewBox="0 0 20 20" fill="none" xmlns="http://www.w3.org/2000/svg" xmlns:xlink="http://www.w3.org/1999/xlink">
	<desc>
			Created with Pixso.
	</desc>
	<defs/>
	<path id="Vector" d="M2.89 17.05C-1.01 13.14 -1.01 6.8 2.89 2.9C6.8 -1.01 13.13 -1.01 17.04 2.9C20.94 6.8 20.94 13.14 17.04 17.05C13.13 20.95 6.8 20.95 2.89 17.05ZM4.31 15.63C5.81 17.13 7.84 17.97 9.97 17.97C12.09 17.97 14.12 17.13 15.62 15.63C17.12 14.13 17.97 12.09 17.97 9.97C17.97 7.85 17.12 5.81 15.62 4.31C14.12 2.81 12.09 1.97 9.97 1.97C7.84 1.97 5.81 2.81 4.31 4.31C2.81 5.81 1.97 7.85 1.97 9.97C1.97 12.09 2.81 14.13 4.31 15.63ZM4.38 8.97L8.97 8.97L8.97 4.38C8.95 3.72 9.29 3.38 9.97 3.38C10.64 3.38 10.98 3.72 10.97 4.38L10.97 8.97L15.55 8.97C16.22 8.97 16.55 9.3 16.55 9.97C16.55 10.64 16.22 10.97 15.55 10.97L10.97 10.97L10.97 15.56C10.98 16.23 10.65 16.56 9.97 16.56C9.28 16.56 8.95 16.23 8.97 15.56L8.97 10.97L4.38 10.97C3.71 10.97 3.38 10.64 3.38 9.97C3.38 9.3 3.71 8.97 4.38 8.97Z" fill="#011632" fill-opacity="1.000000" fill-rule="nonzero"/>
</svg>
