<svg width="32.000000" height="32.000000" viewBox="0 0 32 32" fill="none" xmlns="http://www.w3.org/2000/svg" xmlns:xlink="http://www.w3.org/1999/xlink">
	<desc>
			Created with Pixso.
	</desc>
	<defs/>
	<path id="youtube" d="M16 0C7.16 0 0 7.16 0 16C0 24.83 7.16 32 16 32C24.83 32 32 24.83 32 16C32 7.16 24.83 0 16 0ZM23.6 12.09C23.4 11.4 22.9 10.9 22.2 10.7C21 10.4 15.9 10.4 15.9 10.4C15.9 10.4 10.9 10.4 9.59 10.7C8.9 10.9 8.4 11.4 8.19 12.09C8 13.4 8 16 8 16C8 16 8 18.59 8.3 19.9C8.5 20.59 9 21.09 9.69 21.29C10.9 21.59 16 21.59 16 21.59C16 21.59 21 21.59 22.3 21.29C23 21.09 23.5 20.59 23.7 19.9C24 18.59 24 16 24 16C24 16 24 13.4 23.6 12.09ZM14.4 13.59L18.6 16L14.4 18.4L14.4 13.59Z" fill="#011632" fill-opacity="1.000000" fill-rule="evenodd"/>
</svg>
