<svg width="32.000000" height="32.000000" viewBox="0 0 32 32" fill="none" xmlns="http://www.w3.org/2000/svg" xmlns:xlink="http://www.w3.org/1999/xlink">
	<desc>
			Created with Pixso.
	</desc>
	<defs/>
	<rect id="facebook" width="32.000000" height="32.000000" fill="#FFFFFF" fill-opacity="0"/>
	<path id="facebook" d="M0 16C0 7.16 7.16 0 16 0C24.83 0 32 7.16 32 16C32 24.83 24.83 32 16 32C7.16 32 0 24.83 0 16ZM16 8C20.4 8 24 11.59 24 16C24 20 21.1 23.4 17.1 24L17.1 18.29L19 18.29L19.4 16L17.2 16L17.2 14.5C17.2 13.9 17.5 13.29 18.5 13.29L19.5 13.29L19.5 11.29C19.5 11.29 18.6 11.09 17.7 11.09C15.9 11.09 14.7 12.2 14.7 14.2L14.7 16L12.7 16L12.7 18.29L14.7 18.29L14.7 23.9C10.9 23.29 8 20 8 16C8 11.59 11.6 8 16 8Z" fill="#011632" fill-opacity="1.000000" fill-rule="evenodd"/>
</svg>
