<svg width="32.000000" height="32.000000" viewBox="0 0 32 32" fill="none" xmlns="http://www.w3.org/2000/svg" xmlns:xlink="http://www.w3.org/1999/xlink">
	<desc>
			Created with Pixso.
	</desc>
	<defs/>
	<path id="instagram" d="M16 0C7.16 0 0 7.16 0 16C0 24.83 7.16 32 16 32C24.83 32 32 24.83 32 16C32 7.16 24.83 0 16 0ZM21.4 8.09C20.9 7.9 20.29 7.79 19.4 7.7L12.6 7.7C11.7 7.7 11.1 7.9 10.6 8.09C10.1 8.29 9.59 8.59 9.09 9.09C8.59 9.59 8.4 10 8.09 10.59C7.9 11.09 7.8 11.7 7.69 12.59L7.69 19.4C7.69 20.29 7.9 20.9 8.09 21.4C8.3 21.9 8.59 22.4 9.09 22.9C9.59 23.4 10 23.59 10.6 23.9C11.1 24.09 11.7 24.2 12.6 24.29L19.4 24.29C20.29 24.29 20.9 24.09 21.4 23.9C21.9 23.7 22.4 23.4 22.9 22.9C23.4 22.4 23.6 22 23.9 21.4C24.1 20.9 24.2 20.29 24.3 19.4L24.3 12.59C24.3 11.7 24.1 11.09 23.9 10.59C23.7 10.09 23.4 9.59 22.9 9.09C22.4 8.59 22 8.4 21.4 8.09ZM20.75 9.44C20.46 9.34 20.07 9.2 19.4 9.2L12.6 9.2C11.8 9.29 11.4 9.4 11.1 9.5C10.7 9.59 10.4 9.79 10.1 10.09C9.86 10.33 9.75 10.57 9.61 10.86C9.57 10.93 9.54 11.01 9.5 11.09C9.48 11.14 9.46 11.19 9.44 11.24C9.34 11.53 9.19 11.92 9.19 12.59L9.19 19.4C9.3 20.2 9.4 20.59 9.5 20.9C9.59 21.29 9.8 21.59 10.1 21.9C10.33 22.13 10.57 22.25 10.86 22.38C10.93 22.42 11.01 22.45 11.1 22.5C11.14 22.51 11.19 22.53 11.24 22.55C11.53 22.65 11.92 22.79 12.6 22.79L19.4 22.79C20.2 22.7 20.6 22.59 20.9 22.5C21.3 22.4 21.6 22.2 21.9 21.9C22.13 21.66 22.24 21.42 22.38 21.13C22.42 21.06 22.45 20.98 22.5 20.9C22.51 20.85 22.53 20.8 22.55 20.75C22.65 20.46 22.8 20.07 22.8 19.4L22.8 12.59C22.7 11.79 22.6 11.4 22.5 11.09C22.4 10.7 22.2 10.4 21.9 10.09C21.66 9.86 21.42 9.75 21.13 9.61C21.06 9.57 20.98 9.54 20.9 9.5C20.85 9.48 20.8 9.46 20.75 9.44ZM21.4 11.59C21.4 12.15 20.95 12.59 20.4 12.59C19.84 12.59 19.4 12.15 19.4 11.59C19.4 11.04 19.84 10.59 20.4 10.59C20.95 10.59 21.4 11.04 21.4 11.59ZM16 11.7C13.6 11.7 11.7 13.59 11.7 16C11.7 18.4 13.6 20.29 16 20.29C18.4 20.29 20.29 18.4 20.29 16C20.29 13.59 18.4 11.7 16 11.7ZM16 18.79C14.5 18.79 13.2 17.59 13.2 16C13.2 14.5 14.4 13.2 16 13.2C17.5 13.2 18.79 14.4 18.79 16C18.79 17.5 17.5 18.79 16 18.79Z" fill="#011632" fill-opacity="1.000000" fill-rule="evenodd"/>
</svg>
