<svg width="104.000000" height="20.000000" viewBox="0 0 104 20" fill="none" xmlns="http://www.w3.org/2000/svg" xmlns:xlink="http://www.w3.org/1999/xlink">
	<desc>
			Created with Pixso.
	</desc>
	<defs/>
	<path id="Star 1" d="M10 0L7.75 6.9L0.48 6.91L6.36 11.18L4.12 18.08L10 13.82L15.87 18.08L13.63 11.18L19.51 6.91L12.24 6.9L10 0Z" fill="#EC942C" fill-opacity="1.000000" fill-rule="nonzero"/>
	<path id="Star 2" d="M31 0L28.75 6.9L21.48 6.91L27.36 11.18L25.12 18.08L31 13.82L36.87 18.08L34.63 11.18L40.51 6.91L33.24 6.9L31 0Z" fill="#EC942C" fill-opacity="1.000000" fill-rule="nonzero"/>
	<path id="Star 3" d="M52 0L49.75 6.9L42.48 6.91L48.36 11.18L46.12 18.08L52 13.82L57.87 18.08L55.63 11.18L61.51 6.91L54.24 6.9L52 0Z" fill="#EC942C" fill-opacity="1.000000" fill-rule="nonzero"/>
	<path id="Star 4" d="M73 0L70.75 6.9L63.48 6.91L69.36 11.18L67.12 18.08L73 13.82L78.87 18.08L76.63 11.18L82.51 6.91L75.24 6.9L73 0Z" fill="#EC942C" fill-opacity="1.000000" fill-rule="nonzero"/>
	<path id="Star 5" d="M94 0L91.75 6.9L84.48 6.91L90.36 11.18L88.12 18.08L94 13.82L99.87 18.08L97.63 11.18L103.51 6.91L96.24 6.9L94 0Z" fill="#EC942C" fill-opacity="1.000000" fill-rule="nonzero"/>
</svg>
