<svg width="1281.000000" height="554.000000" viewBox="0 0 1281 554" fill="none" xmlns="http://www.w3.org/2000/svg" xmlns:xlink="http://www.w3.org/1999/xlink">
	<desc>
			Created with Pixso.
	</desc>
	<defs/>
	<rect id="Frame 172" width="1280.000000" height="554.000000" fill="#E6F6FE" fill-opacity="1.000000"/>
	<path id="Vector 1" d="M0 351.75C15.03 351.75 129.28 481.04 280.48 481.04C490.52 481.04 603.61 10.06 899.43 141.71C1133.96 246.09 1237.05 257.26 1280 184.67" stroke="#E6F6FE" stroke-opacity="1.000000" stroke-width="1.000000"/>
	<path id="Vector 3" d="M0 240.08C13.31 249.96 129.28 481.04 280.48 481.04C490.52 481.04 637.97 61.6 933.79 193.26C1168.31 297.63 1205.26 280.88 1280 227.62" stroke="#E6F6FE" stroke-opacity="1.000000" stroke-width="1.000000"/>
	<path id="Vector 2" d="M0 420.48C15.03 420.48 129.28 484.48 280.48 484.48C490.52 484.48 606.06 -66.81 882.25 102.2C1083.69 225.47 1202.68 274.44 1280 219.03" stroke="#E6F6FE" stroke-opacity="1.000000" stroke-width="1.000000"/>
</svg>
