<svg width="100.000000" height="100.000000" viewBox="0 0 100 100" fill="none" xmlns="http://www.w3.org/2000/svg" xmlns:xlink="http://www.w3.org/1999/xlink">
	<desc>
			Created with Pixso.
	</desc>
	<defs>
		<filter id="filter_201_3547_dd" x="-0.500000" y="0.000000" width="100.000000" height="100.000000" filterUnits="userSpaceOnUse" color-interpolation-filters="sRGB">
			<feFlood flood-opacity="0" result="BackgroundImageFix"/>
			<feBlend mode="normal" in="SourceGraphic" in2="BackgroundImageFix" result="shape"/>
			<feGaussianBlur stdDeviation="8.33333" result="effect_layerBlur_1"/>
		</filter>
		<clipPath id="clip201_3554">
			<rect id="implant 1" width="48.000000" height="48.000000" transform="translate(25.500000 26.000000)" fill="white" fill-opacity="0"/>
		</clipPath>
	</defs>
	<g filter="url(#filter_201_3547_dd)">
		<circle id="Ellipse 5" cx="49.500000" cy="50.000000" r="25.000000" fill="#25B4F8" fill-opacity="1.000000"/>
	</g>
	<circle id="Ellipse 6" cx="49.500000" cy="50.000000" r="35.000000" fill="#25B4F8" fill-opacity="1.000000"/>
	<rect id="implant 1" width="48.000000" height="48.000000" transform="translate(25.500000 26.000000)" fill="#FFFFFF" fill-opacity="0"/>
	<g clip-path="url(#clip201_3554)">
		<path id="Vector" d="M65.45 30.91C65.28 30.57 64.85 30.43 64.51 30.61C64.16 30.79 64.03 31.22 64.21 31.56C65.12 33.33 65.32 35.36 64.75 37.28C64.52 38.04 62.53 44.78 62.45 45.11C62.43 45.18 62.37 45.22 62.3 45.22L45.71 45.22C45.32 45.22 45.01 45.54 45.01 45.93C45.01 46.32 45.32 46.63 45.71 46.63L60.17 46.63L59.78 48.78C59.77 48.85 59.7 48.9 59.63 48.9L39.37 48.9C39.3 48.9 39.24 48.85 39.23 48.78L38.84 46.63L42.65 46.63C43.04 46.63 43.35 46.32 43.35 45.93C43.35 45.54 43.04 45.22 42.65 45.22L36.7 45.22C36.63 45.22 36.57 45.18 36.56 45.11C36.56 45.1 36.55 45.1 36.55 45.09L34.26 37.28C33.56 34.93 34 32.45 35.47 30.49C36.94 28.53 39.18 27.4 41.63 27.4C42.36 27.4 43.08 27.5 43.78 27.7C47.52 28.79 51.48 28.79 55.23 27.7C55.92 27.5 56.64 27.4 57.37 27.4C59.26 27.4 61.07 28.08 62.47 29.33C62.76 29.58 63.2 29.56 63.46 29.27C63.72 28.98 63.69 28.53 63.4 28.28C61.74 26.8 59.6 26 57.37 26C56.51 26 55.66 26.12 54.84 26.35C51.35 27.36 47.66 27.36 44.17 26.35C43.35 26.12 42.49 26 41.63 26C38.73 26 36.08 27.33 34.34 29.65C32.61 31.97 32.09 34.89 32.91 37.67L35.2 45.48C35.38 46.16 36 46.63 36.7 46.63L37.41 46.63L37.84 49.03C37.98 49.77 38.62 50.31 39.37 50.31L42.44 50.31L42.93 54.58L42.44 54.72C41.93 54.85 41.5 55.18 41.23 55.64C40.97 56.1 40.9 56.64 41.03 57.15C41.27 58.04 42.08 58.62 42.95 58.62C43.1 58.62 43.25 58.6 43.4 58.57L43.65 60.75L42.98 60.93C41.92 61.21 41.29 62.3 41.57 63.36C41.81 64.25 42.62 64.83 43.49 64.83C43.66 64.83 43.84 64.81 44.01 64.76L44.11 64.74L44.37 66.91L43.79 67.06C43.28 67.2 42.85 67.53 42.59 67.99C42.32 68.45 42.25 68.98 42.39 69.5C42.52 70.01 42.85 70.44 43.31 70.7C43.62 70.88 43.96 70.97 44.3 70.97C44.48 70.97 44.65 70.95 44.82 70.9L44.83 70.9L45.02 72.55C45.12 73.37 45.82 74 46.65 74L52.36 74C53.19 74 53.89 73.37 53.98 72.55L54.48 68.31L55.21 68.12C56.27 67.83 56.9 66.74 56.62 65.68C56.4 64.88 55.73 64.33 54.95 64.23L55.24 61.75L56.03 61.54C57.08 61.26 57.71 60.17 57.43 59.11C57.21 58.29 56.51 57.73 55.72 57.65L56 55.2L56.57 55.04C57.63 54.76 58.26 53.67 57.97 52.61C57.77 51.87 57.17 51.33 56.47 51.18L56.57 50.31L59.63 50.31C60.38 50.31 61.03 49.77 61.16 49.03L61.6 46.63L62.3 46.63C63.01 46.63 63.63 46.15 63.81 45.46C63.87 45.22 65.21 40.67 66.1 37.67C66.77 35.4 66.54 33 65.45 30.91ZM52.59 72.38C52.57 72.5 52.47 72.59 52.36 72.59L46.65 72.59C46.53 72.59 46.43 72.5 46.42 72.38L46.2 70.53L53.02 68.71L52.59 72.38ZM55.26 66.05C55.34 66.36 55.16 66.67 54.85 66.76L44.46 69.54C44.31 69.58 44.15 69.56 44.02 69.48C43.88 69.41 43.79 69.28 43.75 69.13C43.71 68.98 43.73 68.83 43.8 68.69C43.88 68.56 44.01 68.46 44.16 68.42L54.55 65.64C54.6 65.62 54.65 65.62 54.7 65.62C54.95 65.62 55.19 65.79 55.26 66.05ZM53.51 64.46L45.74 66.54L45.49 64.37L53.78 62.15L53.51 64.46ZM56.07 59.47C56.15 59.78 55.97 60.1 55.66 60.19L43.64 63.41C43.33 63.49 43.02 63.3 42.93 63C42.85 62.69 43.03 62.37 43.34 62.28L55.36 59.06C55.41 59.05 55.46 59.04 55.51 59.04C55.77 59.04 56 59.22 56.07 59.47ZM56.61 52.98C56.7 53.28 56.51 53.6 56.2 53.69L51.91 54.84C51.53 54.94 51.31 55.32 51.41 55.7C51.51 56.07 51.9 56.3 52.27 56.2L54.54 55.59L54.27 57.9L45.02 60.38L44.77 58.21L49.31 56.99C49.69 56.89 49.91 56.5 49.81 56.13C49.71 55.75 49.32 55.53 48.95 55.63L43.1 57.2C42.79 57.28 42.47 57.09 42.39 56.79C42.35 56.64 42.37 56.48 42.45 56.35C42.53 56.21 42.65 56.12 42.8 56.08L55.9 52.57C56.21 52.48 56.53 52.67 56.61 52.98ZM55.03 51.34L44.31 54.22L43.85 50.31L55.15 50.31L55.03 51.34Z" fill="#FFFFFF" fill-opacity="1.000000" fill-rule="nonzero"/>
		<path id="Vector" d="M54.84 30.1C51.35 31.11 47.66 31.11 44.17 30.1C43.79 30 43.4 30.21 43.3 30.58C43.19 30.96 43.4 31.35 43.78 31.45C45.65 32 47.58 32.27 49.5 32.27C51.43 32.27 53.36 32 55.23 31.45C55.6 31.35 55.82 30.96 55.71 30.58C55.6 30.21 55.21 30 54.84 30.1Z" fill="#FFFFFF" fill-opacity="1.000000" fill-rule="nonzero"/>
	</g>
</svg>
