<svg width="100.000000" height="100.000000" viewBox="0 0 100 100" fill="none" xmlns="http://www.w3.org/2000/svg" xmlns:xlink="http://www.w3.org/1999/xlink">
	<desc>
			Created with Pixso.
	</desc>
	<defs>
		<filter id="filter_201_3831_dd" x="0.000000" y="0.000000" width="100.000000" height="100.000000" filterUnits="userSpaceOnUse" color-interpolation-filters="sRGB">
			<feFlood flood-opacity="0" result="BackgroundImageFix"/>
			<feBlend mode="normal" in="SourceGraphic" in2="BackgroundImageFix" result="shape"/>
			<feGaussianBlur stdDeviation="8.33333" result="effect_layerBlur_1"/>
		</filter>
	</defs>
	<circle id="Ellipse 6" cx="50.000000" cy="50.000000" r="35.000000" fill="#25B4F8" fill-opacity="1.000000"/>
	<g filter="url(#filter_201_3831_dd)">
		<circle id="Ellipse 5" cx="50.000000" cy="50.000000" r="25.000000" fill="#25B4F8" fill-opacity="1.000000"/>
	</g>
	<path id="Vector" d="M50 73.99C49.79 73.99 49.02 73.62 48.79 73.52C40.06 69.79 34.77 63.83 32.24 55.45L32.21 35.38C32.21 33.41 39.42 37.77 47.69 28.33C50.39 25.25 49.6 25.25 52.3 28.33C60.57 37.77 67.78 33.41 67.78 35.38L67.75 55.45C65.22 63.83 59.92 69.79 51.2 73.52C50.97 73.62 50.2 73.99 50 73.99ZM33.34 55.2C35.79 63.31 40.77 68.86 49.23 72.49L50 72.82L50.76 72.49C59.01 68.96 64.18 63.39 66.57 55.48L66.65 55.2L66.65 35.93L64.76 35.89C59.66 35.77 55.43 33.61 51.45 29.07L50 27.41L48.54 29.07C44.56 33.61 40.33 35.77 35.23 35.89L33.34 35.93L33.34 55.2L33.34 55.2Z" fill="#FFFFFF" fill-opacity="1.000000" fill-rule="evenodd"/>
	<path id="Vector" d="M38.12 66.3Q42.24 70.83 48.75 73.61Q48.79 73.63 48.93 73.7Q49.31 73.87 49.5 73.94Q49.87 74.09 50 74.09Q50.12 74.09 50.49 73.94Q50.68 73.87 51.06 73.7Q51.2 73.63 51.24 73.62Q57.75 70.83 61.87 66.3Q61.99 66.16 62.11 66.03Q65.99 61.64 67.85 55.48L67.85 55.46L67.88 35.38Q67.88 35.17 67.78 35.03Q67.75 34.99 67.72 34.95Q67.58 34.81 67.29 34.75Q67.06 34.69 66.67 34.68Q66.43 34.67 65.85 34.67Q65.14 34.68 64.73 34.67Q64.03 34.65 63.41 34.58Q61.76 34.42 60.23 33.89Q56.05 32.46 52.37 28.26Q52.02 27.86 51.48 27.22Q51.15 26.82 51.01 26.66Q50.79 26.41 50.64 26.26Q50.46 26.09 50.31 26.01Q50.15 25.92 49.99 25.92Q49.84 25.92 49.68 26.01Q49.53 26.09 49.35 26.26Q49.2 26.41 48.98 26.66Q48.84 26.82 48.51 27.22Q47.97 27.86 47.62 28.26Q43.94 32.46 39.76 33.89Q38.23 34.42 36.58 34.58Q35.96 34.65 35.26 34.67Q34.85 34.68 34.14 34.67Q33.56 34.67 33.32 34.68Q32.93 34.69 32.7 34.75Q32.41 34.81 32.27 34.95Q32.24 34.99 32.21 35.03Q32.11 35.17 32.11 35.38L32.14 55.46L32.14 55.48Q34.02 61.7 37.94 66.1Q38.03 66.2 38.12 66.3ZM50 73.99C49.79 73.99 49.02 73.62 48.79 73.52C40.06 69.79 34.77 63.83 32.24 55.45L32.21 35.38C32.21 34.76 32.92 34.77 34.14 34.77C36.83 34.79 42.01 34.81 47.69 28.33C49.04 26.79 49.52 26.02 49.99 26.02C50.35 26.02 50.7 26.44 51.41 27.28C51.65 27.58 51.95 27.93 52.3 28.33C57.98 34.81 63.16 34.79 65.85 34.77C67.07 34.77 67.78 34.76 67.78 35.38L67.75 55.45C65.22 63.83 59.92 69.79 51.2 73.52C50.97 73.62 50.2 73.99 50 73.99ZM33.34 55.2C35.79 63.31 40.77 68.86 49.23 72.49L50 72.82L50.76 72.49C59.01 68.96 64.18 63.39 66.57 55.48L66.65 55.2L66.65 35.93L64.76 35.89C59.66 35.77 55.43 33.61 51.45 29.07L50.06 27.48L50 27.41L49.93 27.48L48.54 29.07C44.56 33.61 40.33 35.77 35.23 35.89L33.34 35.93L33.34 55.2L33.34 55.2ZM33.44 55.19Q34.36 58.23 35.75 60.77Q37.03 63.09 38.73 65.04Q38.91 65.25 39.1 65.46Q41.05 67.59 43.58 69.32Q46.11 71.04 49.27 72.4L50 72.71L50.72 72.4Q56.89 69.76 60.79 65.56Q61.33 64.97 61.83 64.36Q64.94 60.54 66.47 55.45L66.55 55.19L66.55 36.03L64.75 35.99Q61.95 35.92 59.45 35.02Q58.52 34.68 57.64 34.23Q54.37 32.55 51.38 29.14L50 27.56L48.61 29.14Q45.62 32.55 42.35 34.23Q41.47 34.68 40.55 35.01Q38.05 35.92 35.24 35.99L33.44 36.03L33.44 55.19Z" fill="#FFFFFF" fill-opacity="1.000000" fill-rule="evenodd"/>
	<path id="Vector" d="M50 71.27C49.92 71.27 49.84 71.25 49.77 71.22C41.92 67.86 37 62.58 34.74 55.08L34.71 37.82C34.71 37.52 34.96 37.27 35.26 37.26C40.78 37.14 45.32 34.83 49.57 29.98C49.79 29.74 50.2 29.74 50.42 29.98C54.67 34.83 59.21 37.14 64.73 37.26C65.03 37.27 65.28 37.52 65.28 37.83L65.25 55.08C62.99 62.58 58.07 67.86 50.22 71.22C50.15 71.25 50.07 71.27 50 71.27L50 71.27ZM35.84 54.83C37.99 61.88 42.62 66.88 50 70.09C57.37 66.88 62 61.88 64.15 54.83L64.15 38.37C58.8 38.11 54.16 35.75 50 31.19C45.83 35.75 41.19 38.11 35.84 38.37L35.84 54.83Z" fill="#FFFFFF" fill-opacity="1.000000" fill-rule="evenodd"/>
	<path id="Vector" d="M40.09 64.77Q43.83 68.79 49.74 71.32Q49.8 71.34 49.86 71.35Q49.93 71.37 50 71.37L50 71.37Q50.07 71.37 50.15 71.35Q50.2 71.34 50.26 71.32Q56.16 68.79 59.9 64.77Q60.48 64.15 61.01 63.49Q63.91 59.88 65.35 55.11L65.35 55.09L65.38 37.83Q65.38 37.69 65.33 37.58Q65.28 37.46 65.19 37.36Q65.09 37.26 64.98 37.22Q64.86 37.17 64.73 37.16Q62.67 37.12 60.79 36.66Q60.2 36.52 59.64 36.33Q58.36 35.92 57.14 35.3Q53.67 33.53 50.49 29.91Q50.46 29.88 50.43 29.85Q50.35 29.79 50.26 29.75Q50.22 29.73 50.18 29.72Q50.09 29.7 49.99 29.7Q49.9 29.7 49.81 29.72Q49.77 29.73 49.73 29.75Q49.63 29.79 49.56 29.85Q49.53 29.88 49.5 29.91Q46.32 33.53 42.85 35.3Q41.63 35.92 40.36 36.33Q39.79 36.51 39.2 36.66Q37.32 37.12 35.26 37.16Q35.13 37.17 35.01 37.22Q34.9 37.27 34.8 37.36Q34.71 37.46 34.66 37.57Q34.61 37.69 34.61 37.82L34.64 55.09L34.64 55.11Q36.08 59.88 38.98 63.49Q39.51 64.15 40.09 64.77ZM50 71.27C49.92 71.27 49.84 71.25 49.77 71.22C41.92 67.86 37 62.58 34.74 55.08L34.71 37.82C34.71 37.52 34.96 37.27 35.26 37.26C40.78 37.14 45.32 34.83 49.57 29.98C49.79 29.74 50.2 29.74 50.42 29.98C54.67 34.83 59.21 37.14 64.73 37.26C65.03 37.27 65.28 37.52 65.28 37.83L65.25 55.08C62.99 62.58 58.07 67.86 50.22 71.22C50.15 71.25 50.07 71.27 50 71.27L50 71.27ZM50 70.09C42.62 66.88 37.99 61.88 35.84 54.83L35.84 38.37C41.16 38.11 45.78 35.78 49.93 31.27C49.95 31.24 49.97 31.22 50 31.19C50.02 31.22 50.04 31.24 50.06 31.27C54.21 35.78 58.83 38.11 64.15 38.37L64.15 54.83C62 61.88 57.37 66.88 50 70.09ZM50 69.98Q44.51 67.59 41.03 63.83Q40.48 63.24 39.98 62.61Q37.29 59.25 35.94 54.82L35.94 38.46Q38.39 38.33 40.65 37.61Q42.07 37.16 43.41 36.48Q46.89 34.71 50 31.34Q53.1 34.71 56.58 36.48Q57.92 37.16 59.33 37.61Q61.6 38.33 64.05 38.46L64.05 54.82Q62.7 59.24 60.01 62.61Q59.51 63.24 58.96 63.83Q55.48 67.59 50 69.98Z" fill="#FFFFFF" fill-opacity="1.000000" fill-rule="evenodd"/>
	<path id="Vector" d="M46.76 61.07C46.63 61.07 46.51 61.03 46.41 60.95C42.15 57.59 42.13 53.2 42.68 49.66C38.5 46.65 40.58 39.99 45.87 39.99C49.38 39.99 49.25 42.5 50.69 41.25C53.93 38.45 59.53 40.56 59.53 45.32C59.53 47.06 58.71 48.65 57.31 49.66C57.86 53.2 57.84 57.59 53.58 60.95C53.14 61.29 52.52 60.84 52.7 60.32C54.1 56.37 50.97 53.96 50 53.33C49.03 53.96 45.94 56.35 47.26 60.24C47.48 60.74 47.09 61.07 46.76 61.07L46.76 61.07ZM50 52.11C50.53 52.11 54.49 54.81 54.16 58.89C56.26 56.6 56.85 53.69 56.15 49.49C56.11 49.26 56.21 49.04 56.4 48.91C59.94 46.72 58.55 41.11 54.12 41.11C51.2 41.11 50.8 44.04 48.56 42.1C46.09 39.95 41.59 41.45 41.59 45.32C41.59 46.79 42.33 48.14 43.59 48.91C43.78 49.04 43.88 49.26 43.85 49.49C43.14 53.69 43.74 56.6 45.83 58.89C45.5 54.81 49.46 52.11 50 52.11L50 52.11Z" fill="#FFFFFF" fill-opacity="1.000000" fill-rule="evenodd"/>
	<path id="Vector" d="M43.41 57.5Q44.41 59.5 46.35 61.03L46.35 61.03Q46.44 61.1 46.54 61.13Q46.6 61.15 46.66 61.16L46.66 61.17L46.76 61.17Q46.8 61.17 46.84 61.16Q46.95 61.15 47.05 61.1Q47.15 61.05 47.23 60.98Q47.26 60.94 47.3 60.9Q47.35 60.83 47.38 60.75Q47.41 60.67 47.42 60.59Q47.44 60.4 47.35 60.2Q46.93 58.94 47.07 57.75Q47.08 57.69 47.09 57.62Q47.11 57.53 47.12 57.44Q47.3 56.5 47.85 55.62Q48.33 54.86 49.04 54.2Q49.5 53.78 50 53.45Q50.5 53.78 50.96 54.21Q51.68 54.87 52.16 55.63Q52.69 56.49 52.87 57.42Q52.89 57.54 52.91 57.66Q52.91 57.69 52.92 57.72Q53.08 58.96 52.61 60.29Q52.56 60.42 52.57 60.54Q52.58 60.63 52.61 60.72Q52.64 60.8 52.68 60.87Q52.75 60.97 52.85 61.04Q52.95 61.12 53.07 61.15Q53.15 61.17 53.23 61.17Q53.32 61.17 53.41 61.15Q53.53 61.11 53.64 61.03Q55.58 59.5 56.59 57.5Q57.08 56.5 57.35 55.4Q57.67 54.03 57.66 52.44Q57.65 51.2 57.42 49.7Q57.97 49.3 58.39 48.79Q58.76 48.34 59.03 47.81Q59.3 47.29 59.44 46.75Q59.63 46.06 59.63 45.32Q59.63 44.44 59.38 43.64Q59.24 43.2 59.03 42.8Q58.88 42.5 58.68 42.23Q58.56 42.05 58.43 41.89Q58.08 41.47 57.65 41.12Q57.5 41 57.34 40.89Q56.88 40.58 56.36 40.36Q56.02 40.21 55.67 40.11Q55.3 40.01 54.92 39.95Q54.38 39.87 53.83 39.9Q53.63 39.91 53.43 39.93Q52.88 40 52.37 40.17Q52.16 40.24 51.96 40.33Q51.66 40.46 51.37 40.63Q50.98 40.87 50.63 41.17Q50.39 41.38 50.2 41.45Q50.05 41.51 49.91 41.49Q49.89 41.49 49.87 41.49Q49.73 41.46 49.56 41.35Q49.44 41.27 49.19 41.07Q48.87 40.81 48.68 40.68Q48.35 40.45 48 40.3Q47.09 39.89 45.87 39.89Q44.89 39.89 44.01 40.19Q43.53 40.35 43.1 40.59Q42.78 40.77 42.49 41Q42.27 41.17 42.07 41.36Q41.67 41.74 41.35 42.2Q41.17 42.46 41.02 42.73Q40.79 43.18 40.63 43.66Q40.48 44.14 40.41 44.62Q40.36 44.95 40.36 45.27Q40.35 45.85 40.45 46.4Q40.5 46.66 40.58 46.91Q40.69 47.31 40.87 47.68Q41.06 48.08 41.32 48.44Q41.35 48.48 41.38 48.52Q41.87 49.19 42.57 49.7Q42.34 51.2 42.33 52.44Q42.32 54.03 42.64 55.4Q42.91 56.5 43.41 57.5ZM42.68 49.66C42.13 53.2 42.15 57.59 46.41 60.95C46.51 61.03 46.63 61.07 46.76 61.07L46.76 61.07C46.79 61.07 46.82 61.06 46.86 61.06C47.16 61 47.46 60.69 47.26 60.24C45.94 56.35 49.03 53.96 50 53.33C50.97 53.96 54.1 56.37 52.7 60.32C52.52 60.84 53.14 61.29 53.58 60.95C57.84 57.59 57.86 53.2 57.31 49.66C58.71 48.65 59.53 47.06 59.53 45.32C59.53 40.56 53.93 38.45 50.69 41.25C50 41.85 49.67 41.58 49.12 41.14C48.53 40.67 47.69 39.99 45.87 39.99C40.58 39.99 38.5 46.65 42.68 49.66ZM54.17 58.73C54.17 58.78 54.16 58.84 54.16 58.89C54.2 58.85 54.23 58.81 54.27 58.77C56.28 56.5 56.84 53.62 56.15 49.49C56.11 49.26 56.21 49.04 56.4 48.91C59.94 46.72 58.55 41.11 54.12 41.11C52.86 41.11 52.07 41.66 51.39 42.12C50.51 42.73 49.83 43.2 48.56 42.1C46.09 39.95 41.59 41.45 41.59 45.32C41.59 46.79 42.33 48.14 43.59 48.91C43.78 49.04 43.88 49.26 43.85 49.49C43.15 53.62 43.71 56.5 45.72 58.77C45.76 58.81 45.79 58.85 45.83 58.89C45.83 58.84 45.82 58.78 45.82 58.73C45.6 54.74 49.47 52.11 50 52.11L50 52.11C50.52 52.11 54.39 54.73 54.17 58.73ZM54.28 58.61Q54.93 57.85 55.36 57Q55.87 56.03 56.1 54.89Q56.57 52.65 56.05 49.5Q56.03 49.4 56.04 49.31Q56.05 49.21 56.1 49.12Q56.14 49.03 56.2 48.96Q56.26 48.88 56.35 48.83Q56.93 48.47 57.35 47.97Q57.39 47.93 57.43 47.89Q57.63 47.63 57.79 47.35Q57.96 47.06 58.07 46.74Q58.14 46.54 58.19 46.35Q58.29 45.92 58.31 45.48Q58.32 45.19 58.29 44.91Q58.25 44.56 58.16 44.22Q58.04 43.8 57.85 43.42Q57.76 43.24 57.64 43.06Q57.41 42.69 57.11 42.39Q56.95 42.24 56.78 42.1Q56.6 41.95 56.39 41.83Q56.02 41.6 55.61 41.45Q54.91 41.21 54.12 41.21Q53.61 41.21 53.13 41.34Q52.85 41.42 52.58 41.54Q52.29 41.66 51.98 41.86Q51.79 41.97 51.45 42.21Q51.02 42.5 50.8 42.62Q50.45 42.81 50.13 42.85Q50.1 42.86 50.06 42.86Q49.72 42.88 49.38 42.75Q48.97 42.58 48.49 42.17Q48.31 42.01 48.1 41.88Q47.82 41.69 47.51 41.55Q47.41 41.51 47.32 41.47Q46.88 41.31 46.41 41.25Q46.26 41.23 46.11 41.22Q45.7 41.2 45.28 41.25Q44.94 41.3 44.62 41.39Q44.4 41.46 44.18 41.55Q43.75 41.73 43.37 41.99Q43.28 42.05 43.2 42.11Q42.87 42.37 42.6 42.69Q42.5 42.81 42.41 42.94Q42.21 43.23 42.06 43.55Q41.69 44.35 41.69 45.32Q41.69 45.92 41.84 46.46Q41.97 46.91 42.21 47.33Q42.43 47.74 42.74 48.08Q43.13 48.51 43.64 48.83Q43.73 48.88 43.79 48.96Q43.85 49.03 43.89 49.12Q43.94 49.21 43.95 49.31Q43.96 49.4 43.94 49.5Q43.42 52.65 43.89 54.89Q44.12 56.02 44.63 57Q45.06 57.85 45.71 58.61Q45.7 58.28 45.73 57.96Q45.8 57 46.17 56.07Q46.63 54.93 47.51 53.9Q48.21 53.09 49.01 52.51Q49.34 52.28 49.6 52.14Q49.87 52.01 50 52.01L50 52.01Q50.13 52.01 50.39 52.14Q50.65 52.28 50.98 52.51Q51.78 53.09 52.48 53.9Q53.36 54.93 53.82 56.07Q54.19 57 54.26 57.96Q54.29 58.28 54.28 58.61Z" fill="#FFFFFF" fill-opacity="1.000000" fill-rule="evenodd"/>
	<path id="Vector" d="M50 45.68C49.19 45.68 46.82 44.64 47.56 43.78C48.47 42.74 49.06 45.96 51.63 43.72C52.19 43.24 52.93 44.09 52.37 44.57C51.55 45.28 50.77 45.68 50 45.68L50 45.68Z" fill="#FFFFFF" fill-opacity="1.000000" fill-rule="evenodd"/>
	<path id="Vector" d="M47.89 43.47Q47.68 43.5 47.49 43.72L47.49 43.72Q47.36 43.86 47.33 44.03Q47.32 44.07 47.32 44.1Q47.31 44.29 47.43 44.49Q47.63 44.82 48.15 45.14Q48.59 45.41 49.14 45.6Q49.67 45.78 50 45.78L50 45.78Q50.59 45.78 51.21 45.48Q51.8 45.2 52.44 44.65Q52.58 44.52 52.64 44.36Q52.67 44.27 52.67 44.17Q52.67 44.08 52.65 44Q52.61 43.85 52.5 43.72Q52.39 43.59 52.24 43.53Q52.17 43.5 52.08 43.49Q51.98 43.47 51.88 43.49Q51.72 43.52 51.57 43.65Q50.57 44.52 49.78 44.42Q49.48 44.39 49.18 44.21Q48.99 44.11 48.68 43.85Q48.48 43.7 48.39 43.64Q48.23 43.53 48.1 43.49Q47.99 43.46 47.89 43.47ZM50 45.68C50.77 45.68 51.55 45.28 52.37 44.57C52.93 44.09 52.19 43.24 51.63 43.72C50.06 45.09 49.23 44.42 48.62 43.93C48.22 43.62 47.92 43.37 47.56 43.78C46.82 44.64 49.19 45.68 50 45.68L50 45.68Z" fill="#FFFFFF" fill-opacity="1.000000" fill-rule="evenodd"/>
</svg>
