<svg width="178.000000" height="178.000000" viewBox="0 0 178 178" fill="none" xmlns="http://www.w3.org/2000/svg" xmlns:xlink="http://www.w3.org/1999/xlink">
	<desc>
			Created with Pixso.
	</desc>
	<defs>
		<filter id="filter_201_5724_dd" x="-0.500000" y="-0.500000" width="178.000000" height="178.000000" filterUnits="userSpaceOnUse" color-interpolation-filters="sRGB">
			<feFlood flood-opacity="0" result="BackgroundImageFix"/>
			<feColorMatrix in="SourceAlpha" type="matrix" values="0 0 0 0 0 0 0 0 0 0 0 0 0 0 0 0 0 0 127 0" result="hardAlpha"/>
			<feOffset dx="0" dy="5"/>
			<feGaussianBlur stdDeviation="20.8333"/>
			<feComposite in2="hardAlpha" operator="out" k2="-1" k3="1"/>
			<feColorMatrix type="matrix" values="0 0 0 0 0.1451 0 0 0 0 0.70588 0 0 0 0 0.97255 0 0 0 0.2 0"/>
			<feBlend mode="normal" in2="BackgroundImageFix" result="effect_dropShadow_1"/>
			<feBlend mode="normal" in="SourceGraphic" in2="effect_dropShadow_1" result="shape"/>
		</filter>
		<clipPath id="clip201_5725">
			<rect id="pin 1" width="26.500000" height="26.500000" transform="translate(75.250000 70.250000)" fill="white" fill-opacity="0"/>
		</clipPath>
	</defs>
	<g filter="url(#filter_201_5724_dd)">
		<circle id="Ellipse 1097" cx="88.500000" cy="83.500000" r="26.500000" fill="#1376F8" fill-opacity="1.000000"/>
	</g>
	<rect id="pin 1" width="26.500000" height="26.500000" transform="translate(75.250000 70.250000)" fill="#FFFFFF" fill-opacity="0"/>
	<g clip-path="url(#clip201_5725)">
		<path id="Vector" d="M88.5 70.25C83.1 70.25 78.71 74.64 78.71 80.03C78.71 81.81 79.5 83.72 79.54 83.8C79.79 84.41 80.3 85.36 80.67 85.92L87.38 96.09C87.65 96.51 88.06 96.75 88.5 96.75C88.93 96.75 89.34 96.51 89.61 96.09L96.32 85.92C96.69 85.36 97.2 84.41 97.46 83.8C97.49 83.72 98.28 81.81 98.28 80.03C98.28 74.64 93.89 70.25 88.5 70.25ZM96.39 83.36C96.16 83.9 95.69 84.79 95.36 85.29L88.65 95.46C88.52 95.66 88.47 95.66 88.34 95.46L81.63 85.29C81.3 84.79 80.83 83.9 80.6 83.36C80.59 83.33 79.86 81.57 79.86 80.03C79.86 75.27 83.73 71.4 88.5 71.4C93.26 71.4 97.13 75.27 97.13 80.03C97.13 81.58 96.4 83.34 96.39 83.36Z" fill="#FFFFFF" fill-opacity="1.000000" fill-rule="nonzero"/>
		<path id="Vector" d="M78.74 77.89Q78.51 78.94 78.51 80.03Q78.51 81.17 78.91 82.6Q79.12 83.32 79.35 83.88L79.35 83.88Q79.55 84.35 79.88 84.98Q80.22 85.6 80.5 86.03L87.21 96.2Q87.42 96.52 87.72 96.71Q87.75 96.73 87.78 96.75Q87.99 96.87 88.21 96.92Q88.35 96.95 88.5 96.95Q88.64 96.95 88.78 96.92Q89 96.87 89.21 96.75Q89.24 96.73 89.27 96.71Q89.57 96.52 89.78 96.2L96.49 86.03Q96.77 85.6 97.11 84.98Q97.44 84.35 97.64 83.88Q97.87 83.33 98.07 82.61Q98.48 81.18 98.48 80.03Q98.48 78.94 98.25 77.89Q98.06 77 97.7 76.15Q97.35 75.32 96.86 74.57Q96.3 73.71 95.56 72.97Q94.81 72.23 93.96 71.67Q93.21 71.18 92.38 70.83Q91.53 70.47 90.64 70.28Q89.59 70.04 88.5 70.04Q87.4 70.04 86.35 70.28Q85.46 70.47 84.61 70.83Q83.78 71.18 83.04 71.67Q82.18 72.23 81.43 72.97Q80.69 73.72 80.13 74.57Q79.64 75.32 79.29 76.15Q78.93 77 78.74 77.89ZM88.5 70.25C83.1 70.25 78.71 74.64 78.71 80.03C78.71 81.81 79.5 83.72 79.54 83.8C79.79 84.41 80.3 85.36 80.67 85.92L87.38 96.09C87.65 96.51 88.06 96.75 88.5 96.75C88.93 96.75 89.34 96.51 89.61 96.09L96.32 85.92C96.69 85.36 97.2 84.41 97.46 83.8C97.49 83.72 98.28 81.81 98.28 80.03C98.28 74.64 93.89 70.25 88.5 70.25ZM96.39 83.36C96.16 83.9 95.69 84.79 95.36 85.29L88.65 95.46C88.52 95.66 88.47 95.66 88.34 95.46L81.63 85.29C81.3 84.79 80.83 83.9 80.6 83.36C80.59 83.33 79.86 81.57 79.86 80.03C79.86 75.27 83.73 71.4 88.5 71.4C93.26 71.4 97.13 75.27 97.13 80.03C97.13 81.58 96.4 83.34 96.39 83.36ZM95.19 85.17L95.19 85.18L88.5 95.33L81.8 85.17Q81.55 84.81 81.25 84.24Q80.95 83.68 80.78 83.28L80.78 83.28Q80.6 82.83 80.41 82.2Q80.06 80.97 80.06 80.03Q80.06 79.1 80.25 78.22Q80.42 77.47 80.72 76.75Q81.02 76.05 81.43 75.43Q81.9 74.7 82.53 74.07Q83.16 73.44 83.89 72.97Q84.51 72.56 85.21 72.26Q85.93 71.96 86.68 71.79Q87.57 71.6 88.5 71.6Q89.43 71.6 90.31 71.79Q91.06 71.96 91.78 72.26Q92.48 72.56 93.1 72.97Q93.83 73.44 94.46 74.07Q95.09 74.7 95.56 75.43Q95.97 76.05 96.27 76.75Q96.57 77.47 96.74 78.22Q96.93 79.1 96.93 80.03Q96.93 80.97 96.57 82.21Q96.46 82.6 96.32 82.98Q96.25 83.19 96.21 83.28Q96.04 83.68 95.74 84.25Q95.44 84.81 95.19 85.17Z" fill="#FFFFFF" fill-opacity="1.000000" fill-rule="evenodd"/>
		<path id="Vector" d="M88.5 74.85C85.64 74.85 83.31 77.18 83.31 80.03C83.31 82.89 85.64 85.22 88.5 85.22C91.35 85.22 93.68 82.89 93.68 80.03C93.68 77.18 91.35 74.85 88.5 74.85ZM88.5 84.06C86.27 84.06 84.46 82.26 84.46 80.03C84.46 77.81 86.27 76 88.5 76C90.72 76 92.53 77.81 92.53 80.03C92.53 82.26 90.72 84.06 88.5 84.06Z" fill="#FFFFFF" fill-opacity="1.000000" fill-rule="nonzero"/>
		<path id="Vector" d="M83.24 78.88Q83.11 79.44 83.11 80.03Q83.11 80.62 83.24 81.19Q83.34 81.67 83.54 82.13Q83.73 82.58 83.99 82.98Q84.29 83.44 84.69 83.84Q85.09 84.24 85.55 84.54Q85.95 84.8 86.4 84.99Q86.86 85.19 87.34 85.29Q87.9 85.42 88.5 85.42Q89.09 85.42 89.65 85.29Q90.13 85.19 90.59 84.99Q91.04 84.8 91.44 84.54Q91.9 84.24 92.3 83.84Q92.7 83.44 93 82.98Q93.26 82.58 93.45 82.13Q93.65 81.67 93.75 81.19Q93.88 80.62 93.88 80.03Q93.88 79.44 93.75 78.88Q93.65 78.4 93.45 77.94Q93.26 77.49 93 77.09Q92.7 76.63 92.3 76.23Q91.9 75.83 91.44 75.53Q91.04 75.26 90.59 75.07Q90.13 74.88 89.65 74.77Q89.09 74.65 88.5 74.65Q87.9 74.65 87.34 74.77Q86.86 74.88 86.4 75.07Q85.95 75.26 85.55 75.53Q85.09 75.83 84.69 76.23Q84.29 76.63 83.99 77.09Q83.73 77.49 83.54 77.94Q83.34 78.4 83.24 78.88ZM88.5 74.85C85.64 74.85 83.31 77.18 83.31 80.03C83.31 82.89 85.64 85.22 88.5 85.22C91.35 85.22 93.68 82.89 93.68 80.03C93.68 77.18 91.35 74.85 88.5 74.85ZM88.5 84.06C86.27 84.06 84.46 82.26 84.46 80.03C84.46 77.81 86.27 76 88.5 76C90.72 76 92.53 77.81 92.53 80.03C92.53 82.26 90.72 84.06 88.5 84.06ZM84.75 80.86Q84.66 80.46 84.66 80.03Q84.66 79.61 84.75 79.21Q84.83 78.87 84.97 78.54Q85.1 78.23 85.29 77.94Q85.5 77.61 85.79 77.33Q86.07 77.04 86.41 76.82Q86.69 76.64 87.01 76.5Q87.33 76.37 87.67 76.29Q88.07 76.2 88.5 76.2Q88.92 76.2 89.32 76.29Q89.66 76.37 89.98 76.5Q90.3 76.64 90.58 76.82Q90.92 77.04 91.2 77.33Q91.49 77.61 91.71 77.94Q91.89 78.23 92.02 78.54Q92.16 78.87 92.24 79.21Q92.33 79.61 92.33 80.03Q92.33 80.46 92.24 80.86Q92.16 81.2 92.02 81.52Q91.89 81.84 91.71 82.12Q91.49 82.46 91.2 82.74Q90.92 83.03 90.58 83.24Q90.3 83.43 89.98 83.56Q89.66 83.7 89.32 83.78Q88.92 83.86 88.5 83.86Q88.07 83.86 87.67 83.78Q87.33 83.7 87.01 83.56Q86.69 83.43 86.41 83.24Q86.07 83.03 85.79 82.74Q85.5 82.45 85.29 82.12Q85.1 81.84 84.97 81.52Q84.83 81.2 84.75 80.86Z" fill="#FFFFFF" fill-opacity="1.000000" fill-rule="evenodd"/>
	</g>
</svg>
