<svg width="178.000000" height="178.000000" viewBox="0 0 178 178" fill="none" xmlns="http://www.w3.org/2000/svg" xmlns:xlink="http://www.w3.org/1999/xlink">
	<desc>
			Created with Pixso.
	</desc>
	<defs>
		<filter id="filter_201_4615_dd" x="-0.500000" y="-0.500000" width="178.000000" height="178.000000" filterUnits="userSpaceOnUse" color-interpolation-filters="sRGB">
			<feFlood flood-opacity="0" result="BackgroundImageFix"/>
			<feColorMatrix in="SourceAlpha" type="matrix" values="0 0 0 0 0 0 0 0 0 0 0 0 0 0 0 0 0 0 127 0" result="hardAlpha"/>
			<feOffset dx="0" dy="5"/>
			<feGaussianBlur stdDeviation="20.8333"/>
			<feComposite in2="hardAlpha" operator="out" k2="-1" k3="1"/>
			<feColorMatrix type="matrix" values="0 0 0 0 0.1451 0 0 0 0 0.70588 0 0 0 0 0.97255 0 0 0 0.2 0"/>
			<feBlend mode="normal" in2="BackgroundImageFix" result="effect_dropShadow_1"/>
			<feBlend mode="normal" in="SourceGraphic" in2="effect_dropShadow_1" result="shape"/>
		</filter>
		<clipPath id="clip201_4616">
			<rect id="live-chat 1" width="30.000000" height="30.000000" transform="translate(74.000000 69.000000)" fill="white" fill-opacity="0"/>
		</clipPath>
	</defs>
	<g filter="url(#filter_201_4615_dd)">
		<circle id="Ellipse 1097" cx="88.500000" cy="83.500000" r="26.500000" fill="#1376F8" fill-opacity="1.000000"/>
	</g>
	<rect id="live-chat 1" width="30.000000" height="30.000000" transform="translate(74.000000 69.000000)" fill="#FFFFFF" fill-opacity="0"/>
	<g clip-path="url(#clip201_4616)">
		<path id="Vector" d="M97.12 80.25L92.75 80.25L92.75 75.87C92.74 75.04 92.41 74.25 91.83 73.66C91.24 73.08 90.45 72.75 89.62 72.75L80.87 72.75C80.04 72.75 79.25 73.08 78.66 73.66C78.08 74.25 77.75 75.04 77.75 75.87L77.75 81.5C77.75 82.21 78 82.91 78.45 83.47C78.91 84.03 79.54 84.41 80.25 84.56L80.25 86.53C80.25 86.77 80.32 87.01 80.46 87.21C80.6 87.41 80.8 87.57 81.03 87.66C81.18 87.71 81.34 87.75 81.5 87.75C81.67 87.75 81.85 87.71 82 87.64C82.16 87.57 82.31 87.47 82.42 87.34L84.94 84.62L85.25 84.62L85.25 89C85.25 89.82 85.58 90.62 86.16 91.2C86.75 91.79 87.54 92.12 88.37 92.12L93.05 92.12L95.57 94.84C95.69 94.97 95.83 95.07 95.99 95.14C96.15 95.21 96.32 95.24 96.49 95.24C96.66 95.24 96.81 95.21 96.96 95.16C97.19 95.07 97.39 94.91 97.53 94.71C97.67 94.51 97.74 94.27 97.75 94.03L97.75 92.06C98.45 91.91 99.08 91.53 99.54 90.97C100 90.41 100.24 89.71 100.25 89L100.25 83.37C100.24 82.54 99.91 81.75 99.33 81.16C98.74 80.58 97.95 80.25 97.12 80.25ZM84.67 83.37C84.58 83.37 84.5 83.39 84.42 83.42C84.34 83.46 84.27 83.51 84.21 83.57L81.5 86.53L81.5 84C81.5 83.83 81.43 83.67 81.31 83.55C81.2 83.44 81.04 83.37 80.87 83.37C80.37 83.37 79.9 83.17 79.54 82.82C79.19 82.47 79 81.99 79 81.5L79 75.87C79 75.37 79.19 74.9 79.54 74.54C79.9 74.19 80.37 74 80.87 74L89.62 74C90.12 74 90.59 74.19 90.95 74.54C91.3 74.9 91.49 75.37 91.5 75.87L91.5 81.5C91.49 81.99 91.3 82.47 90.95 82.82C90.59 83.17 90.12 83.37 89.62 83.37L84.67 83.37ZM99 89C98.99 89.49 98.8 89.97 98.45 90.32C98.09 90.67 97.62 90.87 97.12 90.87C96.95 90.87 96.79 90.94 96.68 91.05C96.56 91.17 96.5 91.33 96.5 91.5L96.48 93.99L93.78 91.07C93.72 91.01 93.65 90.96 93.57 90.92C93.49 90.89 93.41 90.87 93.32 90.87L88.37 90.87C87.87 90.87 87.4 90.67 87.04 90.32C86.69 89.97 86.5 89.49 86.5 89L86.5 84.62L89.62 84.62C90.45 84.62 91.24 84.29 91.83 83.7C92.41 83.12 92.74 82.32 92.75 81.5L97.12 81.5C97.62 81.5 98.09 81.69 98.45 82.04C98.8 82.4 98.99 82.87 99 83.37L99 89Z" fill="#FFFFFF" fill-opacity="1.000000" fill-rule="nonzero"/>
	</g>
</svg>
