<svg width="178.000000" height="178.000000" viewBox="0 0 178 178" fill="none" xmlns="http://www.w3.org/2000/svg" xmlns:xlink="http://www.w3.org/1999/xlink">
	<desc>
			Created with Pixso.
	</desc>
	<defs>
		<filter id="filter_201_5738_dd" x="-0.500000" y="-0.500000" width="178.000000" height="178.000000" filterUnits="userSpaceOnUse" color-interpolation-filters="sRGB">
			<feFlood flood-opacity="0" result="BackgroundImageFix"/>
			<feColorMatrix in="SourceAlpha" type="matrix" values="0 0 0 0 0 0 0 0 0 0 0 0 0 0 0 0 0 0 127 0" result="hardAlpha"/>
			<feOffset dx="0" dy="5"/>
			<feGaussianBlur stdDeviation="20.8333"/>
			<feComposite in2="hardAlpha" operator="out" k2="-1" k3="1"/>
			<feColorMatrix type="matrix" values="0 0 0 0 0.1451 0 0 0 0 0.70588 0 0 0 0 0.97255 0 0 0 0.2 0"/>
			<feBlend mode="normal" in2="BackgroundImageFix" result="effect_dropShadow_1"/>
			<feBlend mode="normal" in="SourceGraphic" in2="effect_dropShadow_1" result="shape"/>
		</filter>
		<clipPath id="clip201_5739">
			<rect id="telephone (1) 1" width="26.500000" height="26.500000" transform="translate(75.000000 70.000000)" fill="white" fill-opacity="0"/>
		</clipPath>
	</defs>
	<g filter="url(#filter_201_5738_dd)">
		<circle id="Ellipse 1097" cx="88.500000" cy="83.500000" r="26.500000" fill="#1376F8" fill-opacity="1.000000"/>
	</g>
	<rect id="telephone (1) 1" width="26.500000" height="26.500000" transform="translate(75.000000 70.000000)" fill="#FFFFFF" fill-opacity="0"/>
	<g clip-path="url(#clip201_5739)">
		<path id="Vector" d="M80.39 87.61C83.01 90.74 86.16 93.2 89.75 94.94C91.11 95.58 92.94 96.35 94.98 96.48C95.11 96.49 95.23 96.5 95.35 96.5C96.72 96.5 97.82 96.02 98.71 95.05C98.72 95.05 98.73 95.03 98.74 95.02C99.05 94.64 99.42 94.29 99.79 93.92C100.05 93.68 100.32 93.42 100.57 93.16C101.74 91.94 101.74 90.39 100.56 89.21L97.26 85.91C96.7 85.33 96.03 85.02 95.33 85.02C94.62 85.02 93.95 85.33 93.37 85.9L91.4 87.87C91.22 87.76 91.04 87.67 90.86 87.58C90.64 87.47 90.44 87.37 90.26 87.25C88.47 86.12 86.84 84.63 85.29 82.73C84.5 81.74 83.97 80.9 83.61 80.05C84.12 79.58 84.61 79.09 85.07 78.62C85.24 78.45 85.41 78.28 85.58 78.11C86.17 77.51 86.49 76.83 86.49 76.13C86.49 75.43 86.18 74.75 85.58 74.15L83.94 72.52C83.75 72.32 83.57 72.14 83.38 71.94C83.02 71.57 82.64 71.19 82.27 70.84C81.7 70.29 81.04 70 80.33 70C79.64 70 78.97 70.29 78.38 70.85L76.33 72.9C75.58 73.65 75.16 74.55 75.07 75.6C74.96 76.91 75.21 78.31 75.83 79.99C76.79 82.6 78.24 85.02 80.39 87.61ZM76.41 75.72C76.47 74.99 76.75 74.38 77.28 73.85L79.32 71.81C79.64 71.5 79.99 71.34 80.33 71.34C80.67 71.34 81.01 71.5 81.32 71.82C81.69 72.16 82.04 72.52 82.41 72.89C82.6 73.09 82.79 73.28 82.98 73.48L84.62 75.11C84.96 75.45 85.13 75.8 85.13 76.14C85.13 76.48 84.96 76.83 84.62 77.17C84.45 77.34 84.28 77.51 84.11 77.68C83.6 78.2 83.12 78.69 82.59 79.15C82.58 79.16 82.58 79.17 82.56 79.18C82.11 79.64 82.18 80.07 82.29 80.4C82.29 80.42 82.3 80.43 82.31 80.44C82.73 81.46 83.32 82.43 84.23 83.58C85.88 85.61 87.62 87.19 89.53 88.4C89.76 88.55 90.02 88.68 90.25 88.8C90.47 88.91 90.67 89.01 90.86 89.13C90.88 89.14 90.89 89.15 90.92 89.16C91.1 89.25 91.27 89.3 91.45 89.3C91.89 89.3 92.17 89.02 92.27 88.92L94.32 86.87C94.64 86.55 94.98 86.38 95.33 86.38C95.74 86.38 96.08 86.64 96.3 86.87L99.61 90.17C100.27 90.83 100.26 91.55 99.59 92.25C99.36 92.49 99.12 92.73 98.86 92.98C98.48 93.35 98.08 93.73 97.71 94.17C97.08 94.85 96.33 95.17 95.36 95.17C95.26 95.17 95.17 95.16 95.07 95.16C93.27 95.04 91.6 94.34 90.34 93.74C86.92 92.09 83.93 89.74 81.44 86.76C79.39 84.3 78.01 82 77.1 79.54C76.53 78.03 76.32 76.82 76.41 75.72Z" fill="#FFFFFF" fill-opacity="1.000000" fill-rule="nonzero"/>
	</g>
</svg>
