<svg width="100.000000" height="100.000000" viewBox="0 0 100 100" fill="none" xmlns="http://www.w3.org/2000/svg" xmlns:xlink="http://www.w3.org/1999/xlink">
	<desc>
			Created with Pixso.
	</desc>
	<defs>
		<filter id="filter_201_3860_dd" x="0.000000" y="0.000000" width="100.000000" height="100.000000" filterUnits="userSpaceOnUse" color-interpolation-filters="sRGB">
			<feFlood flood-opacity="0" result="BackgroundImageFix"/>
			<feBlend mode="normal" in="SourceGraphic" in2="BackgroundImageFix" result="shape"/>
			<feGaussianBlur stdDeviation="8.33333" result="effect_layerBlur_1"/>
		</filter>
		<clipPath id="clip201_3861">
			<rect id="tooth 1" width="48.000000" height="48.000000" transform="translate(26.000000 26.000000)" fill="white" fill-opacity="0"/>
		</clipPath>
	</defs>
	<circle id="Ellipse 4" cx="50.000000" cy="50.000000" r="35.000000" fill="#25B4F8" fill-opacity="1.000000"/>
	<g filter="url(#filter_201_3860_dd)">
		<circle id="Ellipse 5" cx="50.000000" cy="50.000000" r="25.000000" fill="#25B4F8" fill-opacity="1.000000"/>
	</g>
	<rect id="tooth 1" width="48.000000" height="48.000000" transform="translate(26.000000 26.000000)" fill="#FFFFFF" fill-opacity="0"/>
	<g clip-path="url(#clip201_3861)">
		<path id="Vector" d="M33.98 29.86C33.93 29.52 33.66 29.26 33.33 29.21C32.02 28.99 31 27.97 30.79 26.66C30.71 26.23 30.3 25.93 29.86 26.01C29.53 26.06 29.26 26.33 29.21 26.66C28.99 27.97 27.97 28.99 26.67 29.21C26.23 29.28 25.94 29.69 26.01 30.13C26.07 30.46 26.33 30.73 26.67 30.78C27.97 31 28.99 32.02 29.21 33.33C29.28 33.76 29.69 34.05 30.13 33.98C30.47 33.92 30.73 33.66 30.79 33.33C31 32.02 32.02 31 33.33 30.78C33.76 30.71 34.06 30.3 33.98 29.86ZM30 31.14C29.68 30.69 29.3 30.31 28.85 29.99C29.3 29.68 29.68 29.29 30 28.85C30.31 29.29 30.69 29.68 31.14 29.99C30.69 30.31 30.31 30.69 30 31.14Z" fill="#FFFFFF" fill-opacity="1.000000" fill-rule="nonzero"/>
		<path id="Vector" d="M57.78 30.79C56.23 30.79 54.7 31.11 53.27 31.72C51.18 32.61 48.81 32.61 46.72 31.72C40.92 29.23 34.21 31.92 31.72 37.71C31.11 39.13 30.8 40.67 30.8 42.21C30.79 46.92 32.12 51.54 34.62 55.53L34.85 55.9L38.3 71.1C38.75 73.1 40.75 74.36 42.75 73.9C44.22 73.57 45.34 72.38 45.59 70.89L47.99 56.49C48.18 55.38 49.22 54.64 50.33 54.82C51.19 54.97 51.86 55.64 52 56.49L54.4 70.89C54.74 72.91 56.65 74.28 58.68 73.94C60.17 73.69 61.36 72.57 61.69 71.1L65.15 55.9L65.37 55.53C67.87 51.54 69.2 46.92 69.19 42.21C69.19 35.91 64.08 30.79 57.78 30.79ZM64.02 54.69L63.72 55.17C63.67 55.24 63.63 55.33 63.61 55.41L60.13 70.74C59.87 71.88 58.74 72.6 57.6 72.34C56.76 72.15 56.12 71.47 55.98 70.62L53.58 56.23C53.25 54.25 51.38 52.91 49.4 53.24C47.87 53.5 46.67 54.7 46.41 56.23L44.01 70.62C43.82 71.78 42.73 72.56 41.58 72.36C40.73 72.22 40.05 71.58 39.86 70.74L36.38 55.41C36.36 55.33 36.32 55.24 36.27 55.17L35.97 54.69C33.63 50.95 32.39 46.62 32.4 42.21C32.4 36.79 36.8 32.4 42.22 32.39C43.55 32.39 44.86 32.66 46.08 33.19C48.58 34.25 51.41 34.25 53.91 33.19C58.89 31.05 64.66 33.36 66.8 38.35C67.32 39.57 67.59 40.88 67.59 42.21C67.59 46.62 66.36 50.95 64.02 54.69Z" fill="#FFFFFF" fill-opacity="1.000000" fill-rule="nonzero"/>
		<path id="Vector" d="M39.6 36.39L39.44 35.61C37.84 35.93 34.8 37.68 34.8 41.99L36.4 41.99C36.4 37.94 39.62 37.21 39.76 37.18L39.6 36.39Z" fill="#FFFFFF" fill-opacity="1.000000" fill-rule="nonzero"/>
		<path id="Vector" d="M41.2 35.59L42.8 35.59L42.8 37.19L41.2 37.19L41.2 35.59Z" fill="#FFFFFF" fill-opacity="1.000000" fill-rule="evenodd"/>
		<path id="Vector" d="M73.98 63.46C73.92 63.12 73.66 62.86 73.32 62.8C72.02 62.58 71 61.56 70.78 60.26C70.71 59.82 70.3 59.53 69.86 59.6C69.52 59.66 69.26 59.92 69.21 60.26C68.99 61.56 67.97 62.58 66.66 62.8C66.23 62.88 65.93 63.29 66.01 63.72C66.06 64.06 66.33 64.32 66.66 64.38C67.97 64.6 68.99 65.62 69.21 66.92C69.28 67.36 69.69 67.65 70.13 67.58C70.46 67.52 70.73 67.26 70.78 66.92C71 65.62 72.02 64.6 73.32 64.38C73.76 64.31 74.05 63.89 73.98 63.46ZM69.99 64.73C69.68 64.29 69.3 63.9 68.85 63.59C69.3 63.28 69.68 62.89 69.99 62.45C70.31 62.89 70.69 63.28 71.14 63.59C70.69 63.9 70.31 64.29 69.99 64.73Z" fill="#FFFFFF" fill-opacity="1.000000" fill-rule="nonzero"/>
	</g>
</svg>
